<?xml version="1.0" encoding="UTF-8"?> <svg xmlns="http://www.w3.org/2000/svg" viewBox="0 0 263.11 263.11"><defs><style>.cls-2{fill:#004379}.cls-3{fill:#10a7d5}</style></defs><circle cx="131.42" cy="131.65" r="130.72" transform="rotate(-85.17 131.43 131.651)" fill="#fff"></circle><path class="cls-2" d="M32.59 187.41l1.72-1 2.93 4.84-1.72 1-1-1.58-9.68 5.86-1-1.68 9.71-5.85zM35 201.21l-.89-1.21-4.71 3.38-1.14-1.59L39.08 194l1.15 1.59-4.48 3.22.88 1.24 4.48-3.22 1.15 1.59-10.83 7.77-1.14-1.59zM44.74 201.57l2.89 3.43-1.54 1.3-1.63-1.93-2.67 2.26L43 208l-1.63 1.37-1.21-1.37-2.8 2.36 1.64 1.93-1.54 1.29-2.89-3.42zM47.23 223.52l-1.13-1 7.54-11.13 1.36 1.19-4 5.68-.26.35.11.1.33-.29 5.23-4.6 1.06.94-4 5.72-.25.36.11.09.32-.3 5.2-4.64 1.35 1.21-10.22 8.73-1.14-1 3.53-5.31.44-.65-.05-.05-.6.51zM54.12 229.39l9.57-9.49 1.92 1.43-6.34 11.89-1.53-1.14 1.34-2.4-1.52-1.12-1.91 2zm8-5.24l.16-.31-.09-.06-.19.22-3 3 1.08.8zM68.16 225.59l1.08-1.7 4.78 3-1.02 1.72-1.57-1-6 9.57-1.66-1.05 6-9.56zM77 228.59l4 2.1-1 1.78-2.22-1.19-1.65 3.09 1.61.85-1 1.89-1.6-.85-1.72 3.23 2.22 1.19-.94 1.78-4-2.11zM82.11 245.91l1.32-5.56-.48-.21-2.25 5.15-1.79-.78 5.33-12.21 1.79.78c2.13.93 2.53 2.57 1.52 4.86a3.69 3.69 0 01-2.2 2.34l-1.44 6.41zm3.15-11l-1.58 3.62c.49.22 1.35.51 2.12-1.23s-.04-2.22-.54-2.44zM94.34 248.53a.87.87 0 001.29-.64l3-10.11 1.88.55-3.11 10.41c-.4 1.38-1.43 2.41-3.62 1.63zM104.48 239.41l4.37 1-.45 2-2.46-.56-.78 3.41 1.77.4-.47 2.09-1.77-.41-.82 3.57 2.46.56-.45 2-4.37-1zM111.52 243l.3-2 5.59.85-.3 2-1.83-.27-1.7 11.18-1.93-.29 1.7-11.19zM120.09 244.17l.14-2 5.65.42-.16 2-1.84-.14-.88 11.28-2-.15.85-11.28zM129.41 242.67h2l-.17 13.33h-2zM137.93 248.89l-.2-.6h-.1v.61l.43 6.93-1.79.11-.82-13.3 1.74-.1 2.33 6.81.19.61h.11v-.62l-.43-6.93 1.79-.11.82 13.3-1.74.11zM148.92 246.16l-.29-2s-.11-1-.79-.88-.51 1.07-.51 1.07l1.16 7.93s.11 1 .79.87.51-1.06.51-1.06l-.35-2.39-.78.12-.23-1.64 2.71-.39 1 6.56-1.15.17-.33-.59a2 2 0 01-1.39 1c-2.46.36-2.7-2.52-2.7-2.52l-1.14-7.77s-.43-2.85 2.17-3.23 3 2.48 3 2.48l.3 2zM162.79 252.05L161 238.69l2.3-.66 5.7 12.25-1.83.53-1.17-2.52-1.81.52.41 2.72zm.71-9.56l-.15-.31h-.11v.34l.62 4.2 1.29-.37zM170.6 235.42c2.19-.89 3.28 1 3.81 2.34l-1.74.85c-.31-.83-.79-1.76-1.4-1.52s-.43.76-.17 1.47 1.41 1.52 2.52 2.29c1.32 1 2.66 1.87 3.16 3.21.63 1.66.64 3.34-1.36 4.09-2.36.89-3.34-.77-4-2.62l1.73-.85c.39 1 .9 2.08 1.67 1.8.54-.21.52-.88.23-1.66s-1.48-1.54-2.57-2.33c-1.35-1-2.64-1.91-3.14-3.25s-.46-3.14 1.26-3.82zM178.68 232c2.12-1.05 3.36.69 4 2l-1.68 1c-.37-.81-.93-1.69-1.52-1.41s-.37.79 0 1.48 1.52 1.41 2.68 2.09c1.4.85 2.8 1.65 3.41 2.95.75 1.61.9 3.28-1 4.19-2.28 1.07-3.39-.51-4.23-2.3l1.67-1c.46 1 1.06 2 1.8 1.67.52-.25.45-.92.09-1.67s-1.58-1.42-2.73-2.13a7.88 7.88 0 01-3.39-3c-.7-1.27-.78-3.05.9-3.87zM193.27 239.76c-2.28 1.3-3.69-1.21-3.69-1.21l-3.89-6.83s-1.44-2.49.84-3.79 3.7 1.21 3.7 1.21l3.89 6.82s1.44 2.5-.85 3.8zm-5.79-10.18c-.6.34-.09 1.18-.09 1.18l3.89 6.82s.45.87 1.05.52.08-1.17.08-1.17l-3.88-6.82s-.45-.87-1.05-.53zM201.31 229.08l1 1.52s1.63 2.37-.54 3.85-3.78-.92-3.78-.92l-4.41-6.5s-1.63-2.38.54-3.85 3.78.92 3.78.92l1 1.51-1.51 1-1-1.51s-.49-.86-1.17-.4 0 1.2 0 1.2l4.41 6.5s.55.81 1.12.42.06-1.23.06-1.23l-1-1.51zM199.53 219.48l1.55-1.21 8.2 10.5-1.54 1.23zM212.8 225.91l-7.42-11.25 1.77-1.6 10.42 8.55-1.41 1.28-2.09-1.78-1.4 1.27 1.55 2.26zm-3.55-8.9l-.27-.22-.08.07.19.3 2.39 3.5 1-.9zM211.85 211.4l-1.46-1.4 3.9-4.09 1.46 1.39-1.28 1.33 8.19 7.81-1.35 1.41-8.18-7.8zM216.57 203.27l1.25-1.51 10.24 8.54-1.26 1.5zM232.78 204.4c-1.54 2.13-3.86.42-3.86.42l-6.36-4.6s-2.35-1.67-.81-3.8 3.87-.43 3.87-.43l6.36 4.6s2.34 1.68.8 3.81zm-9.48-6.87c-.41.56.41 1.1.41 1.1l6.35 4.61s.78.6 1.18 0-.41-1.1-.41-1.1l-6.36-4.6s-.77-.54-1.17-.01zM232.06 192.71l-.61-.17-.06.09.53.32 5.94 3.59-.92 1.54-11.41-6.89.9-1.49 6.93 2 .61.18.05-.1-.52-.32-5.95-3.58.93-1.54 11.41 6.88-.9 1.5zM38 147.07c.36-.4 4.21 17.05 21.88 36 16.92 18.81 51.59 35.75 88.56 27.11 37.12-7.93 61.27-38 68.56-62.27 7.91-24.64 4-42.08 4.46-41.87-.64-.13 7.85 15.81 3.61 43.86a93.89 93.89 0 01-20.7 44.71 95.48 95.48 0 01-113.15 25.3 93.89 93.89 0 01-37.78-31.63c-15.78-23.57-14.9-41.6-15.44-41.21z"></path><path class="cls-3" d="M122.84 34.3c.33.35-15.51 2.44-33.74 16.71C71 64.63 53.27 94.21 58.11 127.8c4.2 33.68 29.15 57.51 50.17 65.87 21.35 9 37.18 6.79 36.95 7.21.17-.55-14.68 5.77-39.34-.16a84 84 0 01-38.23-21.9A85.36 85.36 0 0153.85 76.07a83.92 83.92 0 0131.09-31.22c22.22-12.24 38.21-10.05 37.9-10.55z"></path><path class="cls-2" d="M194.62 64.54c0 .43-10.64-8.93-30.77-12.77-19.58-4.11-49.64 1.26-69.21 24-20 22.4-21.38 52.89-14.71 71.78C86.38 167 97 176.31 96.62 176.41c.47-.21-12.39-6.43-22.78-26.32a74.32 74.32 0 01-7.65-38.22 75.52 75.52 0 0160.45-69 74.17 74.17 0 0138.9 2.56c21.08 7.67 28.94 19.57 29.08 19.11z"></path><path class="cls-3" d="M213.61 126.77c-.29.22-.53-11.65-9.59-26.27-8.59-14.44-29-30-54.19-29.12-25.21.37-44.84 16.86-52.72 31.7-8.35 15-8 26.91-8.33 26.7.4.17-3.06-11.31 3.33-29a62.24 62.24 0 0119.27-26.45 63.44 63.44 0 0177-1.86 62.28 62.28 0 0120.53 25.5c7.23 17.35 4.32 29.03 4.7 28.8z"></path><path class="cls-2" d="M118.31 173h-7.43l-8.76-65H111l3.8 33.78.18 2.12h.71l.26-2.12L120 108h6.9l4.1 33.74.26 2.12h.71l.17-2.12 3.77-33.74h8.84L136 173h-7.43l-4.43-30.78-.53-3.8h-.35l-.53 3.8zM146.34 164.2s5.14 1.07 5.14-4.77V108H161v53c0 7-3.35 13.27-14.68 12.65zM165 173l9.82-65h11.68l9.81 65H187l-1.77-13.27h-9.2L174.29 173zm16.19-43.87l-.27-1.68h-.53l-.26 1.68-2.74 20.52h6.54z"></path><path class="cls-2" d="M0 131.56A131.56 131.56 0 01131.56 0a131.56 131.56 0 01131.55 131.56 131.55 131.55 0 01-131.55 131.55A131.56 131.56 0 010 131.56zm40.28-91.28a128.66 128.66 0 00-37.81 91.28 128.66 128.66 0 0037.81 91.27 128.64 128.64 0 0091.28 37.81 128.62 128.62 0 0091.27-37.81 128.66 128.66 0 0037.81-91.27 128.66 128.66 0 00-37.81-91.28 128.66 128.66 0 00-91.27-37.81 128.66 128.66 0 00-91.28 37.81z"></path><path class="cls-2" d="M24.74 131.56A106.83 106.83 0 01131.56 24.74a106.82 106.82 0 01106.81 106.82 106.81 106.81 0 01-106.81 106.81A106.82 106.82 0 0124.74 131.56zm33-73.79a104 104 0 00-30.56 73.79 104 104 0 0030.56 73.78 104 104 0 0073.79 30.56 104 104 0 0073.78-30.56 104 104 0 0030.56-73.78 104 104 0 00-30.56-73.79 104 104 0 00-73.78-30.56 104 104 0 00-73.76 30.56z"></path></svg> 